<svg xmlns="http://www.w3.org/2000/svg" viewBox="0 0 14.7 29.8">
<style type="text/css">
	.st0{fill:url(#SVGID_1_);}
	.st0{color:red;}
</style>
<radialGradient id="SVGID_1_" cx="7.375" cy="2" r="16.0471" gradientUnits="userSpaceOnUse">
	<stop  offset="0" style="stop-color:#FFF"/>
	<stop  offset="0.7682" style="stop-color:currentColor"/>
	<stop  offset="1" style="stop-color:currentColor"/>
</radialGradient>
<path class="st0" d="M7.1,18.7c0.3,1,0.1,2,0.1,3c0.1,1.4,0.9,2.4,1.9,3.2c0.1-0.2,0.1-0.4,0.2-0.6C8.5,24.7,7,25.4,7,26.6
	c0.1,1.1,0.9,1.8,0.7,3c-0.1,0.5,0.6,0.2,0.6-0.2c0.1-0.8-0.1-1.6-0.5-2.3c-0.1-0.3-0.3-0.7-0.2-1c0.2-0.6,1.3-1,1.8-1.2
	c0.2-0.1,0.4-0.4,0.2-0.6c-1-0.9-1.7-1.8-1.8-3.2c0-0.9,0.1-1.9-0.1-2.8C7.6,17.9,7,18.4,7.1,18.7z M7.4,0C3.3,0,0,4.2,0,9.4
	s5.5,9.7,7.4,9.7s7.4-4.6,7.4-9.7C14.7,4.2,11.4,0,7.4,0z M8.3,18.5h-1c0,0-0.2,0.9-0.6,1.2c-0.4,0.3,1.3-0.7,2,0
	C8.5,19.5,8.1,19.1,8.3,18.5z"/>
</svg>
