<?xml version="1.0" encoding="iso-8859-1"?>
<!-- Generator: Adobe Illustrator 19.0.0, SVG Export Plug-In . SVG Version: 6.00 Build 0)  -->
<svg version="1.1" id="Capa_1" xmlns="http://www.w3.org/2000/svg" xmlns:xlink="http://www.w3.org/1999/xlink" x="0px" y="0px"
	 viewBox="0 0 512 512" style="enable-background:new 0 0 512 512;" xml:space="preserve">
<path style="fill:#EFEDEE;" d="M404.759,200.363L273.751,89.141c-10.238-8.692-25.264-8.692-35.502,0L107.241,200.363v110.605
	h290.503L404.759,200.363z"/>
<g>
	<polygon style="fill:#D2D2D2;" points="119.065,429.376 97.163,315.036 256,277.238 414.837,315.036 392.935,429.376 	"/>
	<polygon style="fill:#D2D2D2;" points="259.488,276.973 397.744,276.973 404.759,200.363 383.532,182.343 256.001,248.248 
		128.468,182.342 107.241,200.363 107.241,276.973 252.512,276.973 	"/>
</g>
<g>
	<path style="fill:#EFEDEE;" d="M0,144.944l256,132.295c0,0-119.925,77.487-136.935,152.138
		C119.065,429.376,16.065,258.339,0,144.944z"/>
	<path style="fill:#EFEDEE;" d="M512,144.944L256,277.238c0,0,119.925,77.487,136.935,152.138
		C392.935,429.376,495.935,258.339,512,144.944z"/>
</g>
<g>
	<path style="fill:#3A484A;" d="M183.993,197.611c-4.268,0-7.726-3.459-7.726-7.726v-13.032c0-4.267,3.458-7.726,7.726-7.726
		s7.726,3.459,7.726,7.726v13.032C191.72,194.152,188.261,197.611,183.993,197.611z"/>
	<path style="fill:#3A484A;" d="M328.007,197.611c-4.268,0-7.726-3.459-7.726-7.726v-13.032c0-4.267,3.458-7.726,7.726-7.726
		s7.726,3.459,7.726,7.726v13.032C335.733,194.152,332.274,197.611,328.007,197.611z"/>
	<path style="fill:#3A484A;" d="M256,204.568c-9.157,0-17.754-3.829-23.589-10.505c-2.809-3.213-2.481-8.094,0.732-10.902
		c3.212-2.808,8.094-2.48,10.901,0.732c2.901,3.318,7.259,5.222,11.955,5.222c4.697,0,9.053-1.904,11.954-5.222
		c2.808-3.213,7.689-3.541,10.901-0.732c3.213,2.808,3.542,7.689,0.732,10.902C273.754,200.739,265.156,204.568,256,204.568z"/>
</g>
<g>
</g>
<g>
</g>
<g>
</g>
<g>
</g>
<g>
</g>
<g>
</g>
<g>
</g>
<g>
</g>
<g>
</g>
<g>
</g>
<g>
</g>
<g>
</g>
<g>
</g>
<g>
</g>
<g>
</g>
</svg>
