<svg 
 xmlns="http://www.w3.org/2000/svg"
 width="235px" height="359px" viewBox="0 0 235 359">
<defs>
<linearGradient id="PSgrad_0" x1="0%" x2="0%" y1="100%" y2="0%">
  <stop offset="0%" stop-color="rgb(42,197,30)" stop-opacity="1" />
  <stop offset="100%" stop-color="rgb(66,255,0)" stop-opacity="1" />
</linearGradient>
</defs>
<path fill-rule="evenodd"  fill="url(#PSgrad_0)"
 d="M159.546,209.824 C159.546,209.824 163.856,52.126 234.990,28.353 C194.025,95.321 183.257,132.045 159.546,209.824 ZM206.234,186.175 C192.819,218.496 172.489,262.628 160.308,324.395 C160.308,324.395 140.656,230.043 206.234,186.175 ZM92.596,-0.004 C192.930,181.974 129.293,292.879 109.670,331.859 C109.670,331.859 148.224,205.060 92.596,-0.004 ZM29.693,59.715 C118.290,171.649 87.137,236.153 87.137,236.153 C78.322,173.003 51.895,109.118 29.693,59.715 ZM90.504,306.517 L83.865,359.008 C72.903,310.585 87.552,232.827 0.009,139.683 C101.354,211.712 90.504,306.517 90.504,306.517 ZM219.927,247.470 C228.186,240.771 207.884,285.290 179.904,326.722 C179.904,326.722 178.642,262.455 219.927,247.470 Z"/>
</svg>