<svg 
 xmlns="http://www.w3.org/2000/svg"
 xmlns:xlink="http://www.w3.org/1999/xlink"
 width="50px" height="50px">
<path fill-rule="evenodd"  fill="rgb(255, 255, 255)" class="button"
 d="M25.004,49.999 C38.786,49.999 49.998,38.785 49.998,25.001 C49.998,11.216 38.786,0.001 25.004,0.001 C11.218,0.001 0.002,11.216 0.002,25.001 C0.002,38.785 11.218,49.999 25.004,49.999 ZM25.004,2.294 C37.521,2.294 47.704,12.480 47.704,25.001 C47.704,37.521 37.521,47.706 25.004,47.706 C12.483,47.706 2.296,37.521 2.296,25.001 C2.296,12.480 12.483,2.294 25.004,2.294 ZM35.113,41.362 L25.328,24.911 L35.113,8.971 L7.060,25.164 L35.113,41.362 Z"/>
</svg>