<svg xmlns="http://www.w3.org/2000/svg" xmlns:xlink="http://www.w3.org/1999/xlink" width="0" height="0">
<symbol viewBox="0 0 85 81" id="star" stroke="#000">
	<path class="st0" d="M65.45,80.56c-0.72,0-1.43-0.18-2.09-0.53l-18.34-9.64c-0.79-0.41-1.67-0.63-2.56-0.63s-1.77,0.22-2.56,0.63
		l-18.34,9.64c-0.67,0.35-1.37,0.53-2.09,0.53c-1.31,0-2.6-0.61-3.46-1.63c-0.86-1.02-1.2-2.31-0.98-3.64l3.5-20.42
		c0.31-1.79-0.29-3.6-1.58-4.87L2.11,35.53c-1.25-1.22-1.68-2.95-1.14-4.61c0.54-1.67,1.9-2.81,3.63-3.06l20.51-2.98
		c1.79-0.26,3.34-1.39,4.14-3.01l9.17-18.58c0.78-1.57,2.28-2.51,4.04-2.51c1.75,0,3.26,0.94,4.04,2.51l9.17,18.58
		c0.8,1.62,2.35,2.75,4.14,3.01l20.51,2.98c1.73,0.25,3.09,1.4,3.63,3.06c0.54,1.67,0.12,3.39-1.14,4.61L67.97,50
		c-1.3,1.26-1.89,3.08-1.58,4.87l3.5,20.42c0.23,1.33-0.12,2.63-0.97,3.64C68.05,79.95,66.76,80.56,65.45,80.56z"/>
</symbol>
</svg>
