<?xml version="1.0" encoding="utf-8"?>
<!-- Generator: Adobe Illustrator 23.0.0, SVG Export Plug-In . SVG Version: 6.00 Build 0)  -->
<svg version="1.1" id="Слой_1" xmlns="http://www.w3.org/2000/svg" xmlns:xlink="http://www.w3.org/1999/xlink" x="0px" y="0px"
	 viewBox="0 0 100 100" style="enable-background:new 0 0 100 100;" xml:space="preserve">
<style type="text/css">
	.st0{fill:#AA1313;}
</style>
<g>
	<path class="st0" d="M50,99.5C22.71,99.5,0.5,77.29,0.5,50C0.5,22.71,22.71,0.5,50,0.5c27.29,0,49.5,22.21,49.5,49.5
		C99.5,77.29,77.29,99.5,50,99.5z M19.23,83.53l0.39,0.35C27.98,91.37,38.77,95.5,50,95.5c25.09,0,45.5-20.41,45.5-45.5
		c0-11.1-4.04-21.78-11.37-30.09l-0.35-0.4L19.23,83.53z M50,4.5C24.91,4.5,4.5,24.91,4.5,50c0,10.8,3.85,21.27,10.84,29.48
		l0.35,0.41L80.6,16.32l-0.4-0.36C71.87,8.57,61.15,4.5,50,4.5z"/>
	<path d="M50,1c27.02,0,49,21.98,49,49S77.02,99,50,99S1,77.02,1,50S22.98,1,50,1 M15.65,80.62l0.77-0.75l64.15-62.81l0.77-0.75
		l-0.8-0.71C72.11,8.12,61.27,4,50,4C24.64,4,4,24.64,4,50c0,10.92,3.89,21.5,10.96,29.8L15.65,80.62 M50,96c25.36,0,46-20.64,46-46
		c0-11.22-4.08-22.02-11.5-30.42l-0.7-0.79l-0.75,0.75L19.26,82.8l-0.75,0.75l0.79,0.71C27.74,91.83,38.65,96,50,96 M50,0
		C22.39,0,0,22.39,0,50c0,27.61,22.39,50,50,50s50-22.39,50-50C100,22.39,77.61,0,50,0L50,0z M15.72,79.15C9.03,71.3,5,61.12,5,50
		C5,25.15,25.15,5,50,5c11.46,0,21.92,4.29,29.87,11.34L15.72,79.15L15.72,79.15z M50,95c-11.54,0-22.07-4.35-30.04-11.49
		l63.79-63.27C90.75,28.17,95,38.59,95,50C95,74.85,74.85,95,50,95L50,95z"/>
</g>
</svg>
